<?xml version="1.0" encoding="iso-8859-1"?>
<!-- Generator: Adobe Illustrator 19.0.0, SVG Export Plug-In . SVG Version: 6.00 Build 0)  -->
<svg version="1.1" id="Layer_1" xmlns="http://www.w3.org/2000/svg" xmlns:xlink="http://www.w3.org/1999/xlink" x="0px" y="0px"
	 viewBox="0 0 512 512" style="enable-background:new 0 0 512 512;" xml:space="preserve">
<g transform="translate(1 1)">
	<g>
		<path style="fill:#FFDD09;" d="M118.467,378.733c0-23.893-18.773-42.667-42.667-42.667s-42.667,18.773-42.667,42.667
			c0,23.893,18.773,42.667,42.667,42.667S118.467,402.627,118.467,378.733"/>
		<path style="fill:#FFDD09;" d="M203.8,378.733c0-23.893-18.773-42.667-42.667-42.667s-42.667,18.773-42.667,42.667
			c0,23.893,18.773,42.667,42.667,42.667S203.8,402.627,203.8,378.733"/>
		<path style="fill:#FFDD09;" d="M476.867,378.733c0-23.893-18.773-42.667-42.667-42.667c-23.893,0-42.667,18.773-42.667,42.667
			c0,23.893,18.773,42.667,42.667,42.667C458.093,421.4,476.867,402.627,476.867,378.733"/>
	</g>
	<path style="fill:#FCC309;" d="M7.533,310.467v68.267h25.6c0-23.893,18.773-42.667,42.667-42.667s42.667,18.773,42.667,42.667
		c0-23.893,18.773-42.667,42.667-42.667S203.8,354.84,203.8,378.733h187.733c0-23.893,18.773-42.667,42.667-42.667
		c23.893,0,42.667,18.773,42.667,42.667h25.6v-68.267H7.533z"/>
	<path style="fill:#FFDD09;" d="M493.933,310.467H374.467V139.8h73.387c25.6,0,46.08,20.48,46.08,46.08V310.467z"/>
	<path style="fill:#FD9808;" d="M447.853,139.8h-17.067c25.6,0,46.08,20.48,46.08,46.08v124.587h17.067V185.88
		C493.933,160.28,473.453,139.8,447.853,139.8"/>
	<path style="fill:#54C9FD;" d="M400.067,242.2v-76.8h40.107c15.36,0,28.16,12.8,28.16,28.16v48.64H400.067z"/>
	<path style="fill:#33A9F8;" d="M440.173,165.4h-17.067c15.36,0,28.16,12.8,28.16,28.16v48.64h17.067v-48.64
		C468.333,178.2,455.533,165.4,440.173,165.4"/>
	<polygon style="fill:#FFDD09;" points="16.067,310.467 374.467,310.467 374.467,88.6 16.067,88.6 	"/>
	<polygon style="fill:#FFFFFF;" points="16.067,310.467 41.667,310.467 41.667,88.6 16.067,88.6 	"/>
	<path d="M75.8,429.933c-28.16,0-51.2-23.04-51.2-51.2c0-28.16,23.04-51.2,51.2-51.2s51.2,23.04,51.2,51.2
		C127,406.893,103.96,429.933,75.8,429.933z M75.8,344.6c-18.773,0-34.133,15.36-34.133,34.133c0,18.773,15.36,34.133,34.133,34.133
		s34.133-15.36,34.133-34.133C109.933,359.96,94.573,344.6,75.8,344.6z"/>
	<path d="M75.8,395.8c-9.387,0-17.067-7.68-17.067-17.067c0-9.387,7.68-17.067,17.067-17.067s17.067,7.68,17.067,17.067
		C92.867,388.12,85.187,395.8,75.8,395.8"/>
	<path d="M161.133,429.933c-28.16,0-51.2-23.04-51.2-51.2c0-28.16,23.04-51.2,51.2-51.2s51.2,23.04,51.2,51.2
		C212.333,406.893,189.293,429.933,161.133,429.933z M161.133,344.6C142.36,344.6,127,359.96,127,378.733
		c0,18.773,15.36,34.133,34.133,34.133s34.133-15.36,34.133-34.133C195.267,359.96,179.907,344.6,161.133,344.6z"/>
	<path d="M161.133,395.8c-9.387,0-17.067-7.68-17.067-17.067c0-9.387,7.68-17.067,17.067-17.067s17.067,7.68,17.067,17.067
		C178.2,388.12,170.52,395.8,161.133,395.8"/>
	<path d="M434.2,395.8c-9.387,0-17.067-7.68-17.067-17.067c0-9.387,7.68-17.067,17.067-17.067s17.067,7.68,17.067,17.067
		C451.267,388.12,443.587,395.8,434.2,395.8"/>
	<path d="M434.2,429.933c-28.16,0-51.2-23.04-51.2-51.2c0-28.16,23.04-51.2,51.2-51.2c28.16,0,51.2,23.04,51.2,51.2
		C485.4,406.893,462.36,429.933,434.2,429.933z M434.2,344.6c-18.773,0-34.133,15.36-34.133,34.133
		c0,18.773,15.36,34.133,34.133,34.133c18.773,0,34.133-15.36,34.133-34.133C468.333,359.96,452.973,344.6,434.2,344.6z"/>
	<path d="M374.467,319h-358.4c-5.12,0-8.533-3.413-8.533-8.533V88.6c0-5.12,3.413-8.533,8.533-8.533h358.4
		c5.12,0,8.533,3.413,8.533,8.533v221.867C383,315.587,379.587,319,374.467,319z M24.6,301.933h341.333v-204.8H24.6V301.933z"/>
	<path d="M493.933,319H374.467c-5.12,0-8.533-3.413-8.533-8.533V139.8c0-5.12,3.413-8.533,8.533-8.533h73.387
		c29.867,0,54.613,24.747,54.613,54.613v124.587C502.467,315.587,499.053,319,493.933,319z M383,301.933h102.4V185.88
		c0-20.48-17.067-37.547-37.547-37.547H383V301.933z"/>
	<path d="M468.333,250.733h-68.267c-5.12,0-8.533-3.413-8.533-8.533v-76.8c0-5.12,3.413-8.533,8.533-8.533h40.107
		c20.48,0,36.693,16.213,36.693,36.693v48.64C476.867,247.32,473.453,250.733,468.333,250.733z M408.6,233.667h51.2V193.56
		c0-11.093-8.533-19.627-19.627-19.627H408.6V233.667z"/>
	<path d="M67.267,284.867c-5.12,0-8.533-3.413-8.533-8.533v-153.6c0-5.12,3.413-8.533,8.533-8.533s8.533,3.413,8.533,8.533v153.6
		C75.8,281.453,72.387,284.867,67.267,284.867z"/>
	<path d="M118.467,284.867c-5.12,0-8.533-3.413-8.533-8.533v-153.6c0-5.12,3.413-8.533,8.533-8.533s8.533,3.413,8.533,8.533v153.6
		C127,281.453,123.587,284.867,118.467,284.867z"/>
	<path d="M169.667,284.867c-5.12,0-8.533-3.413-8.533-8.533v-153.6c0-5.12,3.413-8.533,8.533-8.533c5.12,0,8.533,3.413,8.533,8.533
		v153.6C178.2,281.453,174.787,284.867,169.667,284.867z"/>
	<path d="M220.867,284.867c-5.12,0-8.533-3.413-8.533-8.533v-153.6c0-5.12,3.413-8.533,8.533-8.533c5.12,0,8.533,3.413,8.533,8.533
		v153.6C229.4,281.453,225.987,284.867,220.867,284.867z"/>
	<path d="M272.067,284.867c-5.12,0-8.533-3.413-8.533-8.533v-153.6c0-5.12,3.413-8.533,8.533-8.533s8.533,3.413,8.533,8.533v153.6
		C280.6,281.453,277.187,284.867,272.067,284.867z"/>
	<path d="M323.267,284.867c-5.12,0-8.533-3.413-8.533-8.533v-153.6c0-5.12,3.413-8.533,8.533-8.533c5.12,0,8.533,3.413,8.533,8.533
		v153.6C331.8,281.453,328.387,284.867,323.267,284.867z"/>
	<path d="M502.467,387.267h-25.6c-5.12,0-8.533-3.413-8.533-8.533c0-18.773-15.36-34.133-34.133-34.133
		c-18.773,0-34.133,15.36-34.133,34.133c0,5.12-3.413,8.533-8.533,8.533H203.8c-5.12,0-8.533-3.413-8.533-8.533
		c0-18.773-15.36-34.133-34.133-34.133S127,359.96,127,378.733c0,5.12-3.413,8.533-8.533,8.533s-8.533-3.413-8.533-8.533
		c0-18.773-15.36-34.133-34.133-34.133s-34.133,15.36-34.133,34.133c0,5.12-3.413,8.533-8.533,8.533h-25.6
		c-5.12,0-8.533-3.413-8.533-8.533v-68.267c0-5.12,3.413-8.533,8.533-8.533h494.933c5.12,0,8.533,3.413,8.533,8.533v68.267
		C511,383.853,507.587,387.267,502.467,387.267z M484.547,370.2h9.387V319H16.067v51.2h9.387
		C29.72,346.307,50.2,327.533,75.8,327.533c17.92,0,33.28,9.387,42.667,23.04c9.387-13.653,24.747-23.04,42.667-23.04
		c25.6,0,46.08,18.773,50.347,42.667h172.373c4.267-23.893,24.747-42.667,50.347-42.667C459.8,327.533,480.28,346.307,484.547,370.2
		z"/>
	<path d="M417.133,276.333h-17.067c-5.12,0-8.533-3.413-8.533-8.533s3.413-8.533,8.533-8.533h17.067c5.12,0,8.533,3.413,8.533,8.533
		S422.253,276.333,417.133,276.333z"/>
</g>
<g>
</g>
<g>
</g>
<g>
</g>
<g>
</g>
<g>
</g>
<g>
</g>
<g>
</g>
<g>
</g>
<g>
</g>
<g>
</g>
<g>
</g>
<g>
</g>
<g>
</g>
<g>
</g>
<g>
</g>
</svg>
